<svg width="2446" height="86" viewBox="0 0 2446 86" fill="none" xmlns="http://www.w3.org/2000/svg">
<circle cx="28" cy="43" r="28" fill="black"/>
<path d="M85.8906 69V48.1172L61.7734 18.2695H65.5703L87.3672 45.2695H87.543L109.375 18.2695H113.137L89.0547 48.1172V69H85.8906ZM140.734 69.8086C134.898 69.8086 129.789 68.7422 125.406 66.6094C121.023 64.4766 117.613 61.4531 115.176 57.5391C112.762 53.6016 111.555 48.9609 111.555 43.6172V43.5469C111.555 38.25 112.762 33.6562 115.176 29.7656C117.613 25.8516 121.023 22.8281 125.406 20.6953C129.789 18.5391 134.898 17.4609 140.734 17.4609C146.57 17.4609 151.68 18.5391 156.062 20.6953C160.445 22.8281 163.855 25.8516 166.293 29.7656C168.73 33.6562 169.949 38.25 169.949 43.5469V43.6172C169.949 48.9609 168.73 53.6016 166.293 57.5391C163.855 61.4531 160.445 64.4766 156.062 66.6094C151.703 68.7422 146.594 69.8086 140.734 69.8086ZM140.734 66.9258C145.914 66.9258 150.449 65.9648 154.34 64.043C158.254 62.1211 161.289 59.4141 163.445 55.9219C165.625 52.4297 166.715 48.3281 166.715 43.6172V43.5469C166.715 38.8359 165.625 34.7461 163.445 31.2773C161.266 27.8086 158.23 25.125 154.34 23.2266C150.449 21.3047 145.914 20.3438 140.734 20.3438C135.555 20.3438 131.02 21.3047 127.129 23.2266C123.238 25.125 120.203 27.8086 118.023 31.2773C115.844 34.7461 114.754 38.8359 114.754 43.5469V43.6172C114.754 48.3516 115.844 52.4648 118.023 55.957C120.203 59.4492 123.238 62.1562 127.129 64.0781C131.043 65.9766 135.578 66.9258 140.734 66.9258ZM203.875 69.8086C198.039 69.8086 192.93 68.7422 188.547 66.6094C184.164 64.4766 180.754 61.4531 178.316 57.5391C175.902 53.6016 174.695 48.9609 174.695 43.6172V43.5469C174.695 38.25 175.902 33.6562 178.316 29.7656C180.754 25.8516 184.164 22.8281 188.547 20.6953C192.93 18.5391 198.039 17.4609 203.875 17.4609C209.711 17.4609 214.82 18.5391 219.203 20.6953C223.586 22.8281 226.996 25.8516 229.434 29.7656C231.871 33.6562 233.09 38.25 233.09 43.5469V43.6172C233.09 48.9609 231.871 53.6016 229.434 57.5391C226.996 61.4531 223.586 64.4766 219.203 66.6094C214.844 68.7422 209.734 69.8086 203.875 69.8086ZM203.875 66.9258C209.055 66.9258 213.59 65.9648 217.48 64.043C221.395 62.1211 224.43 59.4141 226.586 55.9219C228.766 52.4297 229.855 48.3281 229.855 43.6172V43.5469C229.855 38.8359 228.766 34.7461 226.586 31.2773C224.406 27.8086 221.371 25.125 217.48 23.2266C213.59 21.3047 209.055 20.3438 203.875 20.3438C198.695 20.3438 194.16 21.3047 190.27 23.2266C186.379 25.125 183.344 27.8086 181.164 31.2773C178.984 34.7461 177.895 38.8359 177.895 43.5469V43.6172C177.895 48.3516 178.984 52.4648 181.164 55.957C183.344 59.4492 186.379 62.1562 190.27 64.0781C194.184 65.9766 198.719 66.9258 203.875 66.9258ZM239.91 69V18.2695H243.109L288.707 67.5234L284.453 64.6055H286.105V18.2695H289.234V69H286.035L240.438 19.7461L244.691 22.6641H243.039V69H239.91ZM300.625 50.5781V46.4297H301.504L337.996 18.2695H342.531L313.387 40.8047L313.211 40.7695L300.625 50.5781ZM298.199 69V18.2695H301.363V69H298.199ZM340.246 69L311.277 41.7188L313.703 39.7148L344.641 69H340.246ZM349.457 69V18.2695H352.621V69H349.457ZM379.094 69.8086C376.141 69.8086 373.457 69.4336 371.043 68.6836C368.652 67.9336 366.578 66.8555 364.82 65.4492C363.062 64.0195 361.656 62.2969 360.602 60.2812C359.547 58.2422 358.891 55.9453 358.633 53.3906L358.598 53.0039H361.762L361.797 53.3555C362.172 56.1211 363.086 58.5234 364.539 60.5625C365.992 62.6016 367.938 64.1836 370.375 65.3086C372.812 66.4102 375.707 66.9609 379.059 66.9609C384.496 66.9609 388.703 65.5664 391.68 62.7773C394.68 59.9883 396.18 56.168 396.18 51.3164V18.2695H399.344V51.457C399.344 55.1133 398.547 58.3242 396.953 61.0898C395.383 63.832 393.086 65.9766 390.062 67.5234C387.062 69.0469 383.406 69.8086 379.094 69.8086ZM422.934 69L405.32 18.2695H408.625L424.445 64.2891H424.551L441.742 18.2695H444.766L461.957 64.2891H462.027L477.848 18.2695H481.188L463.539 69H460.586L443.289 23.0156H443.184L425.887 69H422.934ZM477.672 69L503.547 18.2695H506.113V21.6797H505.199L481.117 69H477.672ZM487.938 52.2656L489.203 49.5586H521.23L522.531 52.2656H487.938ZM529.387 69L505.305 21.6797V18.2695H506.922L532.832 69H529.387ZM538.035 69V18.2695H541.199V66.1875H576.988V69H538.035ZM601.07 69.8086C598.117 69.8086 595.434 69.4336 593.02 68.6836C590.629 67.9336 588.555 66.8555 586.797 65.4492C585.039 64.0195 583.633 62.2969 582.578 60.2812C581.523 58.2422 580.867 55.9453 580.609 53.3906L580.574 53.0039H583.738L583.773 53.3555C584.148 56.1211 585.062 58.5234 586.516 60.5625C587.969 62.6016 589.914 64.1836 592.352 65.3086C594.789 66.4102 597.684 66.9609 601.035 66.9609C606.473 66.9609 610.68 65.5664 613.656 62.7773C616.656 59.9883 618.156 56.168 618.156 51.3164V18.2695H621.32V51.457C621.32 55.1133 620.523 58.3242 618.93 61.0898C617.359 63.832 615.062 65.9766 612.039 67.5234C609.039 69.0469 605.383 69.8086 601.07 69.8086ZM644.91 69L627.297 18.2695H630.602L646.422 64.2891H646.527L663.719 18.2695H666.742L683.934 64.2891H684.004L699.824 18.2695H703.164L685.516 69H682.562L665.266 23.0156H665.16L647.863 69H644.91ZM699.648 69L725.523 18.2695H728.09V21.6797H727.176L703.094 69H699.648ZM709.914 52.2656L711.18 49.5586H743.207L744.508 52.2656H709.914ZM751.363 69L727.281 21.6797V18.2695H728.898L754.809 69H751.363ZM760.012 69V18.2695H763.176V66.1875H798.965V69H760.012Z" fill="black"/>
<path d="M854.281 69.8086C849.195 69.8086 844.812 69.2461 841.133 68.1211C837.477 66.9961 834.629 65.3789 832.59 63.2695C830.551 61.1367 829.391 58.5938 829.109 55.6406L829.074 55.1836H832.238L832.309 55.6055C832.59 57.9727 833.633 60.0117 835.438 61.7227C837.242 63.4102 839.738 64.7109 842.926 65.625C846.113 66.5391 849.945 66.9961 854.422 66.9961C858.477 66.9961 861.922 66.5391 864.758 65.625C867.594 64.6875 869.762 63.3633 871.262 61.6523C872.762 59.918 873.512 57.8555 873.512 55.4648V55.4297C873.512 52.2656 872.352 49.9219 870.031 48.3984C867.711 46.875 863.879 45.7969 858.535 45.1641L847.109 44.0742C841.367 43.3945 837.137 42.0586 834.418 40.0664C831.699 38.0508 830.34 35.1562 830.34 31.3828V31.3125C830.34 28.5 831.219 26.0625 832.977 24C834.734 21.9375 837.23 20.332 840.465 19.1836C843.723 18.0352 847.578 17.4609 852.031 17.4609C856.742 17.4609 860.809 18.0352 864.23 19.1836C867.676 20.332 870.383 21.9727 872.352 24.1055C874.32 26.2383 875.457 28.7812 875.762 31.7344L875.797 32.1562H872.633L872.562 31.7695C872.234 29.3555 871.227 27.3047 869.539 25.6172C867.852 23.9062 865.531 22.5938 862.578 21.6797C859.625 20.7422 856.098 20.2734 851.996 20.2734C848.129 20.2734 844.812 20.7305 842.047 21.6445C839.305 22.5352 837.195 23.8008 835.719 25.4414C834.266 27.082 833.539 29.0156 833.539 31.2422V31.3125C833.539 34.2656 834.688 36.5156 836.984 38.0625C839.281 39.5859 842.902 40.6406 847.848 41.2266L859.273 42.3516C863.375 42.8438 866.703 43.6055 869.258 44.6367C871.812 45.6445 873.688 47.0156 874.883 48.75C876.102 50.4844 876.711 52.6758 876.711 55.3242V55.3594C876.711 58.3594 875.832 60.9375 874.074 63.0938C872.316 65.25 869.762 66.9141 866.41 68.0859C863.059 69.2344 859.016 69.8086 854.281 69.8086ZM900.863 69V21.082H877.414V18.2695H927.477V21.082H904.027V69H900.863ZM957.324 69.8086C952.238 69.8086 947.855 68.9062 944.176 67.1016C940.496 65.2969 937.66 62.7305 935.668 59.4023C933.699 56.0742 932.715 52.125 932.715 47.5547V18.2695H935.879V47.4492C935.879 51.4805 936.734 54.9609 938.445 57.8906C940.156 60.7969 942.605 63.0352 945.793 64.6055C949.004 66.1523 952.859 66.9258 957.359 66.9258C961.883 66.9258 965.738 66.1523 968.926 64.6055C972.137 63.0352 974.586 60.7969 976.273 57.8906C977.961 54.9844 978.805 51.5039 978.805 47.4492V18.2695H981.969V47.5547C981.969 52.125 980.984 56.0859 979.016 59.4375C977.047 62.7656 974.223 65.332 970.543 67.1367C966.863 68.918 962.457 69.8086 957.324 69.8086ZM990.934 69V18.2695H1015.37C1021.23 18.2695 1026.2 19.2891 1030.27 21.3281C1034.35 23.3437 1037.47 26.25 1039.62 30.0469C1041.78 33.8203 1042.86 38.332 1042.86 43.582V43.6523C1042.86 48.8555 1041.78 53.3555 1039.62 57.1523C1037.49 60.9492 1034.38 63.8789 1030.27 65.9414C1026.2 67.9805 1021.23 69 1015.37 69H990.934ZM994.098 66.1875H1015.3C1020.5 66.1875 1024.91 65.2852 1028.52 63.4805C1032.12 61.6523 1034.88 59.0508 1036.78 55.6758C1038.7 52.3008 1039.66 48.3047 1039.66 43.6875V43.6172C1039.66 38.9062 1038.71 34.875 1036.81 31.5234C1034.91 28.1719 1032.15 25.5937 1028.52 23.7891C1024.91 21.9844 1020.5 21.082 1015.3 21.082H994.098V66.1875ZM1049.71 69V18.2695H1052.88V69H1049.71ZM1088.98 69.8086C1083.15 69.8086 1078.04 68.7422 1073.66 66.6094C1069.27 64.4766 1065.86 61.4531 1063.43 57.5391C1061.01 53.6016 1059.8 48.9609 1059.8 43.6172V43.5469C1059.8 38.25 1061.01 33.6562 1063.43 29.7656C1065.86 25.8516 1069.27 22.8281 1073.66 20.6953C1078.04 18.5391 1083.15 17.4609 1088.98 17.4609C1094.82 17.4609 1099.93 18.5391 1104.31 20.6953C1108.7 22.8281 1112.11 25.8516 1114.54 29.7656C1116.98 33.6562 1118.2 38.25 1118.2 43.5469V43.6172C1118.2 48.9609 1116.98 53.6016 1114.54 57.5391C1112.11 61.4531 1108.7 64.4766 1104.31 66.6094C1099.95 68.7422 1094.84 69.8086 1088.98 69.8086ZM1088.98 66.9258C1094.16 66.9258 1098.7 65.9648 1102.59 64.043C1106.5 62.1211 1109.54 59.4141 1111.7 55.9219C1113.88 52.4297 1114.96 48.3281 1114.96 43.6172V43.5469C1114.96 38.8359 1113.88 34.7461 1111.7 31.2773C1109.52 27.8086 1106.48 25.125 1102.59 23.2266C1098.7 21.3047 1094.16 20.3438 1088.98 20.3438C1083.8 20.3438 1079.27 21.3047 1075.38 23.2266C1071.49 25.125 1068.45 27.8086 1066.27 31.2773C1064.09 34.7461 1063 38.8359 1063 43.5469V43.6172C1063 48.3516 1064.09 52.4648 1066.27 55.957C1068.45 59.4492 1071.49 62.1562 1075.38 64.0781C1079.29 65.9766 1083.83 66.9258 1088.98 66.9258Z" fill="black"/>
<circle cx="1199" cy="43" r="28" fill="black"/>
<path d="M1276.89 69V48.1172L1252.77 18.2695H1256.57L1278.37 45.2695H1278.54L1300.38 18.2695H1304.14L1280.05 48.1172V69H1276.89ZM1331.73 69.8086C1325.9 69.8086 1320.79 68.7422 1316.41 66.6094C1312.02 64.4766 1308.61 61.4531 1306.18 57.5391C1303.76 53.6016 1302.55 48.9609 1302.55 43.6172V43.5469C1302.55 38.25 1303.76 33.6562 1306.18 29.7656C1308.61 25.8516 1312.02 22.8281 1316.41 20.6953C1320.79 18.5391 1325.9 17.4609 1331.73 17.4609C1337.57 17.4609 1342.68 18.5391 1347.06 20.6953C1351.45 22.8281 1354.86 25.8516 1357.29 29.7656C1359.73 33.6562 1360.95 38.25 1360.95 43.5469V43.6172C1360.95 48.9609 1359.73 53.6016 1357.29 57.5391C1354.86 61.4531 1351.45 64.4766 1347.06 66.6094C1342.7 68.7422 1337.59 69.8086 1331.73 69.8086ZM1331.73 66.9258C1336.91 66.9258 1341.45 65.9648 1345.34 64.043C1349.25 62.1211 1352.29 59.4141 1354.45 55.9219C1356.62 52.4297 1357.71 48.3281 1357.71 43.6172V43.5469C1357.71 38.8359 1356.62 34.7461 1354.45 31.2773C1352.27 27.8086 1349.23 25.125 1345.34 23.2266C1341.45 21.3047 1336.91 20.3438 1331.73 20.3438C1326.55 20.3438 1322.02 21.3047 1318.13 23.2266C1314.24 25.125 1311.2 27.8086 1309.02 31.2773C1306.84 34.7461 1305.75 38.8359 1305.75 43.5469V43.6172C1305.75 48.3516 1306.84 52.4648 1309.02 55.957C1311.2 59.4492 1314.24 62.1562 1318.13 64.0781C1322.04 65.9766 1326.58 66.9258 1331.73 66.9258ZM1394.88 69.8086C1389.04 69.8086 1383.93 68.7422 1379.55 66.6094C1375.16 64.4766 1371.75 61.4531 1369.32 57.5391C1366.9 53.6016 1365.7 48.9609 1365.7 43.6172V43.5469C1365.7 38.25 1366.9 33.6562 1369.32 29.7656C1371.75 25.8516 1375.16 22.8281 1379.55 20.6953C1383.93 18.5391 1389.04 17.4609 1394.88 17.4609C1400.71 17.4609 1405.82 18.5391 1410.2 20.6953C1414.59 22.8281 1418 25.8516 1420.43 29.7656C1422.87 33.6562 1424.09 38.25 1424.09 43.5469V43.6172C1424.09 48.9609 1422.87 53.6016 1420.43 57.5391C1418 61.4531 1414.59 64.4766 1410.2 66.6094C1405.84 68.7422 1400.73 69.8086 1394.88 69.8086ZM1394.88 66.9258C1400.05 66.9258 1404.59 65.9648 1408.48 64.043C1412.39 62.1211 1415.43 59.4141 1417.59 55.9219C1419.77 52.4297 1420.86 48.3281 1420.86 43.6172V43.5469C1420.86 38.8359 1419.77 34.7461 1417.59 31.2773C1415.41 27.8086 1412.37 25.125 1408.48 23.2266C1404.59 21.3047 1400.05 20.3438 1394.88 20.3438C1389.7 20.3438 1385.16 21.3047 1381.27 23.2266C1377.38 25.125 1374.34 27.8086 1372.16 31.2773C1369.98 34.7461 1368.89 38.8359 1368.89 43.5469V43.6172C1368.89 48.3516 1369.98 52.4648 1372.16 55.957C1374.34 59.4492 1377.38 62.1562 1381.27 64.0781C1385.18 65.9766 1389.72 66.9258 1394.88 66.9258ZM1430.91 69V18.2695H1434.11L1479.71 67.5234L1475.45 64.6055H1477.11V18.2695H1480.23V69H1477.04L1431.44 19.7461L1435.69 22.6641H1434.04V69H1430.91ZM1491.62 50.5781V46.4297H1492.5L1529 18.2695H1533.53L1504.39 40.8047L1504.21 40.7695L1491.62 50.5781ZM1489.2 69V18.2695H1492.36V69H1489.2ZM1531.25 69L1502.28 41.7188L1504.7 39.7148L1535.64 69H1531.25ZM1540.46 69V18.2695H1543.62V69H1540.46ZM1570.09 69.8086C1567.14 69.8086 1564.46 69.4336 1562.04 68.6836C1559.65 67.9336 1557.58 66.8555 1555.82 65.4492C1554.06 64.0195 1552.66 62.2969 1551.6 60.2812C1550.55 58.2422 1549.89 55.9453 1549.63 53.3906L1549.6 53.0039H1552.76L1552.8 53.3555C1553.17 56.1211 1554.09 58.5234 1555.54 60.5625C1556.99 62.6016 1558.94 64.1836 1561.38 65.3086C1563.81 66.4102 1566.71 66.9609 1570.06 66.9609C1575.5 66.9609 1579.7 65.5664 1582.68 62.7773C1585.68 59.9883 1587.18 56.168 1587.18 51.3164V18.2695H1590.34V51.457C1590.34 55.1133 1589.55 58.3242 1587.95 61.0898C1586.38 63.832 1584.09 65.9766 1581.06 67.5234C1578.06 69.0469 1574.41 69.8086 1570.09 69.8086ZM1613.93 69L1596.32 18.2695H1599.62L1615.45 64.2891H1615.55L1632.74 18.2695H1635.77L1652.96 64.2891H1653.03L1668.85 18.2695H1672.19L1654.54 69H1651.59L1634.29 23.0156H1634.18L1616.89 69H1613.93ZM1668.67 69L1694.55 18.2695H1697.11V21.6797H1696.2L1672.12 69H1668.67ZM1678.94 52.2656L1680.2 49.5586H1712.23L1713.53 52.2656H1678.94ZM1720.39 69L1696.3 21.6797V18.2695H1697.92L1723.83 69H1720.39ZM1729.04 69V18.2695H1732.2V66.1875H1767.99V69H1729.04ZM1792.07 69.8086C1789.12 69.8086 1786.43 69.4336 1784.02 68.6836C1781.63 67.9336 1779.55 66.8555 1777.8 65.4492C1776.04 64.0195 1774.63 62.2969 1773.58 60.2812C1772.52 58.2422 1771.87 55.9453 1771.61 53.3906L1771.57 53.0039H1774.74L1774.77 53.3555C1775.15 56.1211 1776.06 58.5234 1777.52 60.5625C1778.97 62.6016 1780.91 64.1836 1783.35 65.3086C1785.79 66.4102 1788.68 66.9609 1792.04 66.9609C1797.47 66.9609 1801.68 65.5664 1804.66 62.7773C1807.66 59.9883 1809.16 56.168 1809.16 51.3164V18.2695H1812.32V51.457C1812.32 55.1133 1811.52 58.3242 1809.93 61.0898C1808.36 63.832 1806.06 65.9766 1803.04 67.5234C1800.04 69.0469 1796.38 69.8086 1792.07 69.8086ZM1835.91 69L1818.3 18.2695H1821.6L1837.42 64.2891H1837.53L1854.72 18.2695H1857.74L1874.93 64.2891H1875L1890.82 18.2695H1894.16L1876.52 69H1873.56L1856.27 23.0156H1856.16L1838.86 69H1835.91ZM1890.65 69L1916.52 18.2695H1919.09V21.6797H1918.18L1894.09 69H1890.65ZM1900.91 52.2656L1902.18 49.5586H1934.21L1935.51 52.2656H1900.91ZM1942.36 69L1918.28 21.6797V18.2695H1919.9L1945.81 69H1942.36ZM1951.01 69V18.2695H1954.18V66.1875H1989.96V69H1951.01Z" fill="black"/>
<path d="M2034.17 80.4961C2032.06 77.7773 2030.3 74.7773 2028.9 71.4961C2027.52 68.2148 2026.48 64.7109 2025.8 60.9844C2025.12 57.2578 2024.79 53.3906 2024.79 49.3828C2024.79 45.375 2025.12 41.5078 2025.8 37.7812C2026.48 34.0547 2027.52 30.5508 2028.9 27.2695C2030.3 23.9648 2032.06 20.9648 2034.17 18.2695H2037.09C2035.66 20.1211 2034.37 22.2422 2033.22 24.6328C2032.1 27.0234 2031.14 29.5898 2030.34 32.332C2029.54 35.0508 2028.93 37.8633 2028.51 40.7695C2028.09 43.6523 2027.88 46.5234 2027.88 49.3828C2027.88 52.2422 2028.09 55.125 2028.51 58.0312C2028.93 60.9141 2029.54 63.7266 2030.34 66.4688C2031.14 69.1875 2032.1 71.7422 2033.22 74.1328C2034.37 76.5234 2035.66 78.6445 2037.09 80.4961H2034.17ZM2043.21 69V18.2695H2067.64C2073.5 18.2695 2078.47 19.2891 2082.55 21.3281C2086.62 23.3437 2089.74 26.25 2091.9 30.0469C2094.05 33.8203 2095.13 38.332 2095.13 43.582V43.6523C2095.13 48.8555 2094.05 53.3555 2091.9 57.1523C2089.77 60.9492 2086.65 63.8789 2082.55 65.9414C2078.47 67.9805 2073.5 69 2067.64 69H2043.21ZM2046.37 66.1875H2067.57C2072.77 66.1875 2077.18 65.2852 2080.79 63.4805C2084.4 61.6523 2087.15 59.0508 2089.05 55.6758C2090.97 52.3008 2091.93 48.3047 2091.93 43.6875V43.6172C2091.93 38.9062 2090.98 34.875 2089.09 31.5234C2087.19 28.1719 2084.42 25.5937 2080.79 23.7891C2077.18 21.9844 2072.77 21.082 2067.57 21.082H2046.37V66.1875ZM2129.09 69.8086C2123.26 69.8086 2118.15 68.7422 2113.77 66.6094C2109.38 64.4766 2105.97 61.4531 2103.54 57.5391C2101.12 53.6016 2099.91 48.9609 2099.91 43.6172V43.5469C2099.91 38.25 2101.12 33.6562 2103.54 29.7656C2105.97 25.8516 2109.38 22.8281 2113.77 20.6953C2118.15 18.5391 2123.26 17.4609 2129.09 17.4609C2134.93 17.4609 2140.04 18.5391 2144.42 20.6953C2148.8 22.8281 2152.21 25.8516 2154.65 29.7656C2157.09 33.6562 2158.31 38.25 2158.31 43.5469V43.6172C2158.31 48.9609 2157.09 53.6016 2154.65 57.5391C2152.21 61.4531 2148.8 64.4766 2144.42 66.6094C2140.06 68.7422 2134.95 69.8086 2129.09 69.8086ZM2129.09 66.9258C2134.27 66.9258 2138.81 65.9648 2142.7 64.043C2146.61 62.1211 2149.65 59.4141 2151.8 55.9219C2153.98 52.4297 2155.07 48.3281 2155.07 43.6172V43.5469C2155.07 38.8359 2153.98 34.7461 2151.8 31.2773C2149.62 27.8086 2146.59 25.125 2142.7 23.2266C2138.81 21.3047 2134.27 20.3438 2129.09 20.3438C2123.91 20.3438 2119.38 21.3047 2115.49 23.2266C2111.6 25.125 2108.56 27.8086 2106.38 31.2773C2104.2 34.7461 2103.11 38.8359 2103.11 43.5469V43.6172C2103.11 48.3516 2104.2 52.4648 2106.38 55.957C2108.56 59.4492 2111.6 62.1562 2115.49 64.0781C2119.4 65.9766 2123.94 66.9258 2129.09 66.9258ZM2180.32 69V21.082H2156.87V18.2695H2206.93V21.082H2183.48V69H2180.32ZM2212.27 80.4961H2209.36C2210.79 78.6445 2212.06 76.5234 2213.19 74.1328C2214.34 71.7422 2215.31 69.1875 2216.11 66.4688C2216.9 63.7266 2217.51 60.9141 2217.93 58.0312C2218.36 55.125 2218.57 52.2422 2218.57 49.3828C2218.57 46.5234 2218.36 43.6523 2217.93 40.7695C2217.51 37.8633 2216.9 35.0508 2216.11 32.332C2215.31 29.5898 2214.34 27.0234 2213.19 24.6328C2212.06 22.2422 2210.79 20.1211 2209.36 18.2695H2212.27C2214.38 20.9648 2216.13 23.9648 2217.51 27.2695C2218.92 30.5508 2219.96 34.0547 2220.64 37.7812C2221.32 41.5078 2221.66 45.375 2221.66 49.3828C2221.66 53.3906 2221.32 57.2578 2220.64 60.9844C2219.96 64.7109 2218.92 68.2148 2217.51 71.4961C2216.13 74.7773 2214.38 77.7773 2212.27 80.4961Z" fill="black"/>
<path d="M2285.29 69.8086C2279.45 69.8086 2274.37 68.7305 2270.03 66.5742C2265.7 64.3945 2262.33 61.3359 2259.94 57.3984C2257.57 53.4609 2256.39 48.8672 2256.39 43.6172V43.5469C2256.39 38.25 2257.56 33.6562 2259.91 29.7656C2262.27 25.8516 2265.62 22.8281 2269.96 20.6953C2274.3 18.5391 2279.41 17.4609 2285.29 17.4609C2290.05 17.4609 2294.28 18.1992 2297.98 19.6758C2301.71 21.1523 2304.79 23.2383 2307.23 25.9336C2309.69 28.6055 2311.34 31.7695 2312.18 35.4258L2312.29 35.8125H2309.12L2308.98 35.4258C2308.07 32.3086 2306.54 29.625 2304.38 27.375C2302.25 25.125 2299.56 23.3906 2296.33 22.1719C2293.12 20.9531 2289.44 20.3438 2285.29 20.3438C2280.06 20.3438 2275.52 21.293 2271.65 23.1914C2267.8 25.0898 2264.83 27.7852 2262.72 31.2773C2260.63 34.7461 2259.59 38.8359 2259.59 43.5469V43.6172C2259.59 48.3047 2260.64 52.3945 2262.75 55.8867C2264.89 59.3789 2267.88 62.0977 2271.72 64.043C2275.56 65.9648 2280.09 66.9258 2285.29 66.9258C2289.39 66.9258 2293.04 66.3164 2296.22 65.0977C2299.43 63.8789 2302.12 62.1211 2304.27 59.8242C2306.45 57.5273 2308.04 54.7617 2309.02 51.5273L2309.12 51.2461H2312.29L2312.18 51.5977C2311.27 55.3242 2309.59 58.5586 2307.16 61.3008C2304.72 64.0195 2301.65 66.1172 2297.95 67.5938C2294.24 69.0703 2290.02 69.8086 2285.29 69.8086ZM2345.9 69.8086C2340.06 69.8086 2334.95 68.7422 2330.57 66.6094C2326.19 64.4766 2322.78 61.4531 2320.34 57.5391C2317.93 53.6016 2316.72 48.9609 2316.72 43.6172V43.5469C2316.72 38.25 2317.93 33.6562 2320.34 29.7656C2322.78 25.8516 2326.19 22.8281 2330.57 20.6953C2334.95 18.5391 2340.06 17.4609 2345.9 17.4609C2351.73 17.4609 2356.84 18.5391 2361.23 20.6953C2365.61 22.8281 2369.02 25.8516 2371.46 29.7656C2373.89 33.6562 2375.11 38.25 2375.11 43.5469V43.6172C2375.11 48.9609 2373.89 53.6016 2371.46 57.5391C2369.02 61.4531 2365.61 64.4766 2361.23 66.6094C2356.87 68.7422 2351.76 69.8086 2345.9 69.8086ZM2345.9 66.9258C2351.08 66.9258 2355.61 65.9648 2359.5 64.043C2363.42 62.1211 2366.45 59.4141 2368.61 55.9219C2370.79 52.4297 2371.88 48.3281 2371.88 43.6172V43.5469C2371.88 38.8359 2370.79 34.7461 2368.61 31.2773C2366.43 27.8086 2363.39 25.125 2359.5 23.2266C2355.61 21.3047 2351.08 20.3438 2345.9 20.3438C2340.72 20.3438 2336.18 21.3047 2332.29 23.2266C2328.4 25.125 2325.37 27.8086 2323.19 31.2773C2321.01 34.7461 2319.92 38.8359 2319.92 43.5469V43.6172C2319.92 48.3516 2321.01 52.4648 2323.19 55.957C2325.37 59.4492 2328.4 62.1562 2332.29 64.0781C2336.21 65.9766 2340.74 66.9258 2345.9 66.9258ZM2381.93 69V18.2695H2385.59L2411.54 65.4492H2411.71L2437.62 18.2695H2441.28V69H2438.22V23.6133H2436.6L2440.33 19.3594L2413.05 69H2410.16L2382.92 19.3594L2386.61 23.6133H2384.99V69H2381.93Z" fill="black"/>
</svg>
