<svg width="1609" height="150" viewBox="0 0 1609 150" fill="none" xmlns="http://www.w3.org/2000/svg">
<path d="M698.238 142.883V92.1523H701.402V140.07H737.191V142.883H698.238Z" fill="white"/>
<path d="M637.875 142.883L663.75 92.1523H666.316V95.5625H665.402L641.32 142.883H637.875ZM648.141 126.148L649.406 123.441H681.434L682.734 126.148H648.141ZM689.59 142.883L665.508 95.5625V92.1523H667.125L693.035 142.883H689.59Z" fill="white"/>
<path d="M583.137 142.883L565.523 92.1523H568.828L584.648 138.172H584.754L601.945 92.1523H604.969L622.16 138.172H622.23L638.051 92.1523H641.391L623.742 142.883H620.789L603.492 96.8984H603.387L586.09 142.883H583.137Z" fill="white"/>
<path d="M539.297 143.691C536.344 143.691 533.66 143.316 531.246 142.566C528.855 141.816 526.781 140.738 525.023 139.332C523.266 137.902 521.859 136.18 520.805 134.164C519.75 132.125 519.094 129.828 518.836 127.273L518.801 126.887H521.965L522 127.238C522.375 130.004 523.289 132.406 524.742 134.445C526.195 136.484 528.141 138.066 530.578 139.191C533.016 140.293 535.91 140.844 539.262 140.844C544.699 140.844 548.906 139.449 551.883 136.66C554.883 133.871 556.383 130.051 556.383 125.199V92.1523H559.547V125.34C559.547 128.996 558.75 132.207 557.156 134.973C555.586 137.715 553.289 139.859 550.266 141.406C547.266 142.93 543.609 143.691 539.297 143.691Z" fill="white"/>
<path d="M476.262 142.883V92.1523H479.426V140.07H515.215V142.883H476.262Z" fill="white"/>
<path d="M415.898 142.883L441.773 92.1523H444.34V95.5625H443.426L419.344 142.883H415.898ZM426.164 126.148L427.43 123.441H459.457L460.758 126.148H426.164ZM467.613 142.883L443.531 95.5625V92.1523H445.148L471.059 142.883H467.613Z" fill="white"/>
<path d="M361.16 142.883L343.547 92.1523H346.852L362.672 138.172H362.777L379.969 92.1523H382.992L400.184 138.172H400.254L416.074 92.1523H419.414L401.766 142.883H398.812L381.516 96.8984H381.41L364.113 142.883H361.16Z" fill="white"/>
<path d="M317.32 143.691C314.367 143.691 311.684 143.316 309.27 142.566C306.879 141.816 304.805 140.738 303.047 139.332C301.289 137.902 299.883 136.18 298.828 134.164C297.773 132.125 297.117 129.828 296.859 127.273L296.824 126.887H299.988L300.023 127.238C300.398 130.004 301.312 132.406 302.766 134.445C304.219 136.484 306.164 138.066 308.602 139.191C311.039 140.293 313.934 140.844 317.285 140.844C322.723 140.844 326.93 139.449 329.906 136.66C332.906 133.871 334.406 130.051 334.406 125.199V92.1523H337.57V125.34C337.57 128.996 336.773 132.207 335.18 134.973C333.609 137.715 331.312 139.859 328.289 141.406C325.289 142.93 321.633 143.691 317.32 143.691Z" fill="white"/>
<path d="M287.684 142.883V92.1523H290.848V142.883H287.684Z" fill="white"/>
<path d="M238.852 124.461V120.312H239.73L276.223 92.1523H280.758L251.613 114.688L251.438 114.652L238.852 124.461ZM236.426 142.883V92.1523H239.59V142.883H236.426ZM278.473 142.883L249.504 115.602L251.93 113.598L282.867 142.883H278.473Z" fill="white"/>
<path d="M178.137 142.883V92.1523H181.336L226.934 141.406L222.68 138.488H224.332V92.1523H227.461V142.883H224.262L178.664 93.6289L182.918 96.5469H181.266V142.883H178.137Z" fill="white"/>
<path d="M142.102 143.691C136.266 143.691 131.156 142.625 126.773 140.492C122.391 138.359 118.98 135.336 116.543 131.422C114.129 127.484 112.922 122.844 112.922 117.5V117.43C112.922 112.133 114.129 107.539 116.543 103.648C118.98 99.7344 122.391 96.7109 126.773 94.5781C131.156 92.4219 136.266 91.3438 142.102 91.3438C147.938 91.3438 153.047 92.4219 157.43 94.5781C161.812 96.7109 165.223 99.7344 167.66 103.648C170.098 107.539 171.316 112.133 171.316 117.43V117.5C171.316 122.844 170.098 127.484 167.66 131.422C165.223 135.336 161.812 138.359 157.43 140.492C153.07 142.625 147.961 143.691 142.102 143.691ZM142.102 140.809C147.281 140.809 151.816 139.848 155.707 137.926C159.621 136.004 162.656 133.297 164.812 129.805C166.992 126.312 168.082 122.211 168.082 117.5V117.43C168.082 112.719 166.992 108.629 164.812 105.16C162.633 101.691 159.598 99.0078 155.707 97.1094C151.816 95.1875 147.281 94.2266 142.102 94.2266C136.922 94.2266 132.387 95.1875 128.496 97.1094C124.605 99.0078 121.57 101.691 119.391 105.16C117.211 108.629 116.121 112.719 116.121 117.43V117.5C116.121 122.234 117.211 126.348 119.391 129.84C121.57 133.332 124.605 136.039 128.496 137.961C132.41 139.859 136.945 140.809 142.102 140.809Z" fill="white"/>
<path d="M78.9609 143.691C73.125 143.691 68.0156 142.625 63.6328 140.492C59.25 138.359 55.8398 135.336 53.4023 131.422C50.9883 127.484 49.7812 122.844 49.7812 117.5V117.43C49.7812 112.133 50.9883 107.539 53.4023 103.648C55.8398 99.7344 59.25 96.7109 63.6328 94.5781C68.0156 92.4219 73.125 91.3438 78.9609 91.3438C84.7969 91.3438 89.9062 92.4219 94.2891 94.5781C98.6719 96.7109 102.082 99.7344 104.52 103.648C106.957 107.539 108.176 112.133 108.176 117.43V117.5C108.176 122.844 106.957 127.484 104.52 131.422C102.082 135.336 98.6719 138.359 94.2891 140.492C89.9297 142.625 84.8203 143.691 78.9609 143.691ZM78.9609 140.809C84.1406 140.809 88.6758 139.848 92.5664 137.926C96.4805 136.004 99.5156 133.297 101.672 129.805C103.852 126.312 104.941 122.211 104.941 117.5V117.43C104.941 112.719 103.852 108.629 101.672 105.16C99.4922 101.691 96.457 99.0078 92.5664 97.1094C88.6758 95.1875 84.1406 94.2266 78.9609 94.2266C73.7812 94.2266 69.2461 95.1875 65.3555 97.1094C61.4648 99.0078 58.4297 101.691 56.25 105.16C54.0703 108.629 52.9805 112.719 52.9805 117.43V117.5C52.9805 122.234 54.0703 126.348 56.25 129.84C58.4297 133.332 61.4648 136.039 65.3555 137.961C69.2695 139.859 73.8047 140.809 78.9609 140.809Z" fill="white"/>
<path d="M24.1172 142.883V122L0 92.1523H3.79688L25.5938 119.152H25.7695L47.6016 92.1523H51.3633L27.2812 122V142.883H24.1172Z" fill="white"/>
<path d="M949.68 149.035H946.762C948.191 147.184 949.469 145.062 950.594 142.672C951.742 140.281 952.715 137.727 953.512 135.008C954.309 132.266 954.918 129.453 955.34 126.57C955.762 123.664 955.973 120.781 955.973 117.922C955.973 115.062 955.762 112.191 955.34 109.309C954.918 106.402 954.309 103.59 953.512 100.871C952.715 98.1289 951.742 95.5625 950.594 93.1719C949.469 90.7812 948.191 88.6602 946.762 86.8086H949.68C951.789 89.5039 953.535 92.5039 954.918 95.8086C956.324 99.0898 957.367 102.594 958.047 106.32C958.727 110.047 959.066 113.914 959.066 117.922C959.066 121.93 958.727 125.797 958.047 129.523C957.367 133.25 956.324 136.754 954.918 140.035C953.535 143.316 951.789 146.316 949.68 149.035Z" fill="white"/>
<path d="M917.723 137.539V89.6211H894.273V86.8086H944.336V89.6211H920.887V137.539H917.723Z" fill="white"/>
<path d="M866.5 138.348C860.664 138.348 855.555 137.281 851.172 135.148C846.789 133.016 843.379 129.992 840.941 126.078C838.527 122.141 837.32 117.5 837.32 112.156V112.086C837.32 106.789 838.527 102.195 840.941 98.3047C843.379 94.3906 846.789 91.3672 851.172 89.2344C855.555 87.0781 860.664 86 866.5 86C872.336 86 877.445 87.0781 881.828 89.2344C886.211 91.3672 889.621 94.3906 892.059 98.3047C894.496 102.195 895.715 106.789 895.715 112.086V112.156C895.715 117.5 894.496 122.141 892.059 126.078C889.621 129.992 886.211 133.016 881.828 135.148C877.469 137.281 872.359 138.348 866.5 138.348ZM866.5 135.465C871.68 135.465 876.215 134.504 880.105 132.582C884.02 130.66 887.055 127.953 889.211 124.461C891.391 120.969 892.48 116.867 892.48 112.156V112.086C892.48 107.375 891.391 103.285 889.211 99.8164C887.031 96.3477 883.996 93.6641 880.105 91.7656C876.215 89.8438 871.68 88.8828 866.5 88.8828C861.32 88.8828 856.785 89.8438 852.895 91.7656C849.004 93.6641 845.969 96.3477 843.789 99.8164C841.609 103.285 840.52 107.375 840.52 112.086V112.156C840.52 116.891 841.609 121.004 843.789 124.496C845.969 127.988 849.004 130.695 852.895 132.617C856.809 134.516 861.344 135.465 866.5 135.465Z" fill="white"/>
<path d="M780.613 137.539V86.8086H805.047C810.906 86.8086 815.875 87.8281 819.953 89.8672C824.031 91.8828 827.148 94.7891 829.305 98.5859C831.461 102.359 832.539 106.871 832.539 112.121V112.191C832.539 117.395 831.461 121.895 829.305 125.691C827.172 129.488 824.055 132.418 819.953 134.48C815.875 136.52 810.906 137.539 805.047 137.539H780.613ZM783.777 134.727H804.977C810.18 134.727 814.586 133.824 818.195 132.02C821.805 130.191 824.559 127.59 826.457 124.215C828.379 120.84 829.34 116.844 829.34 112.227V112.156C829.34 107.445 828.391 103.414 826.492 100.062C824.594 96.7109 821.828 94.1328 818.195 92.3281C814.586 90.5234 810.18 89.6211 804.977 89.6211H783.777V134.727Z" fill="white"/>
<path d="M771.578 149.035C769.469 146.316 767.711 143.316 766.305 140.035C764.922 136.754 763.891 133.25 763.211 129.523C762.531 125.797 762.191 121.93 762.191 117.922C762.191 113.914 762.531 110.047 763.211 106.32C763.891 102.594 764.922 99.0898 766.305 95.8086C767.711 92.5039 769.469 89.5039 771.578 86.8086H774.496C773.066 88.6602 771.777 90.7812 770.629 93.1719C769.504 95.5625 768.543 98.1289 767.746 100.871C766.949 103.59 766.34 106.402 765.918 109.309C765.496 112.191 765.285 115.062 765.285 117.922C765.285 120.781 765.496 123.664 765.918 126.57C766.34 129.453 766.949 132.266 767.746 135.008C768.543 137.727 769.504 140.281 770.629 142.672C771.777 145.062 773.066 147.184 774.496 149.035H771.578Z" fill="white"/>
<path d="M1109.61 142.883V92.1523H1113.27L1139.21 139.332H1139.39L1165.3 92.1523H1168.95V142.883H1165.89V97.4961H1164.28L1168 93.2422L1140.72 142.883H1137.84L1110.59 93.2422L1114.29 97.4961H1112.67V142.883H1109.61Z" fill="white"/>
<path d="M1073.57 143.691C1067.74 143.691 1062.63 142.625 1058.25 140.492C1053.86 138.359 1050.45 135.336 1048.02 131.422C1045.6 127.484 1044.39 122.844 1044.39 117.5V117.43C1044.39 112.133 1045.6 107.539 1048.02 103.648C1050.45 99.7344 1053.86 96.7109 1058.25 94.5781C1062.63 92.4219 1067.74 91.3438 1073.57 91.3438C1079.41 91.3438 1084.52 92.4219 1088.9 94.5781C1093.29 96.7109 1096.7 99.7344 1099.13 103.648C1101.57 107.539 1102.79 112.133 1102.79 117.43V117.5C1102.79 122.844 1101.57 127.484 1099.13 131.422C1096.7 135.336 1093.29 138.359 1088.9 140.492C1084.54 142.625 1079.43 143.691 1073.57 143.691ZM1073.57 140.809C1078.75 140.809 1083.29 139.848 1087.18 137.926C1091.09 136.004 1094.13 133.297 1096.29 129.805C1098.46 126.312 1099.55 122.211 1099.55 117.5V117.43C1099.55 112.719 1098.46 108.629 1096.29 105.16C1094.11 101.691 1091.07 99.0078 1087.18 97.1094C1083.29 95.1875 1078.75 94.2266 1073.57 94.2266C1068.39 94.2266 1063.86 95.1875 1059.97 97.1094C1056.08 99.0078 1053.04 101.691 1050.86 105.16C1048.68 108.629 1047.59 112.719 1047.59 117.43V117.5C1047.59 122.234 1048.68 126.348 1050.86 129.84C1053.04 133.332 1056.08 136.039 1059.97 137.961C1063.88 139.859 1068.42 140.809 1073.57 140.809Z" fill="white"/>
<path d="M1012.96 143.691C1007.13 143.691 1002.04 142.613 997.707 140.457C993.371 138.277 990.008 135.219 987.617 131.281C985.25 127.344 984.066 122.75 984.066 117.5V117.43C984.066 112.133 985.238 107.539 987.582 103.648C989.949 99.7344 993.301 96.7109 997.637 94.5781C1001.97 92.4219 1007.08 91.3438 1012.96 91.3438C1017.72 91.3438 1021.95 92.082 1025.66 93.5586C1029.38 95.0352 1032.46 97.1211 1034.9 99.8164C1037.36 102.488 1039.02 105.652 1039.86 109.309L1039.96 109.695H1036.8L1036.66 109.309C1035.75 106.191 1034.21 103.508 1032.05 101.258C1029.92 99.0078 1027.24 97.2734 1024 96.0547C1020.79 94.8359 1017.11 94.2266 1012.96 94.2266C1007.74 94.2266 1003.19 95.1758 999.324 97.0742C995.48 98.9727 992.504 101.668 990.395 105.16C988.309 108.629 987.266 112.719 987.266 117.43V117.5C987.266 122.188 988.32 126.277 990.43 129.77C992.562 133.262 995.551 135.98 999.395 137.926C1003.24 139.848 1007.76 140.809 1012.96 140.809C1017.07 140.809 1020.71 140.199 1023.9 138.98C1027.11 137.762 1029.79 136.004 1031.95 133.707C1034.13 131.41 1035.71 128.645 1036.7 125.41L1036.8 125.129H1039.96L1039.86 125.48C1038.95 129.207 1037.27 132.441 1034.83 135.184C1032.39 137.902 1029.32 140 1025.62 141.477C1021.92 142.953 1017.7 143.691 1012.96 143.691Z" fill="white"/>
<path d="M1255.24 51.5391V0.808594H1258.4V48.7266H1294.19V51.5391H1255.24Z" fill="white"/>
<path d="M1194.88 51.5391L1220.75 0.808594H1223.32V4.21875H1222.4L1198.32 51.5391H1194.88ZM1205.14 34.8047L1206.41 32.0977H1238.43L1239.73 34.8047H1205.14ZM1246.59 51.5391L1222.51 4.21875V0.808594H1224.12L1250.04 51.5391H1246.59Z" fill="white"/>
<path d="M1140.14 51.5391L1122.52 0.808594H1125.83L1141.65 46.8281H1141.75L1158.95 0.808594H1161.97L1179.16 46.8281H1179.23L1195.05 0.808594H1198.39L1180.74 51.5391H1177.79L1160.49 5.55469H1160.39L1143.09 51.5391H1140.14Z" fill="white"/>
<path d="M1096.3 52.3477C1093.34 52.3477 1090.66 51.9727 1088.25 51.2227C1085.86 50.4727 1083.78 49.3945 1082.02 47.9883C1080.27 46.5586 1078.86 44.8359 1077.8 42.8203C1076.75 40.7812 1076.09 38.4844 1075.84 35.9297L1075.8 35.543H1078.96L1079 35.8945C1079.38 38.6602 1080.29 41.0625 1081.74 43.1016C1083.2 45.1406 1085.14 46.7227 1087.58 47.8477C1090.02 48.9492 1092.91 49.5 1096.26 49.5C1101.7 49.5 1105.91 48.1055 1108.88 45.3164C1111.88 42.5273 1113.38 38.707 1113.38 33.8555V0.808594H1116.55V33.9961C1116.55 37.6523 1115.75 40.8633 1114.16 43.6289C1112.59 46.3711 1110.29 48.5156 1107.27 50.0625C1104.27 51.5859 1100.61 52.3477 1096.3 52.3477Z" fill="white"/>
<path d="M1033.26 51.5391V0.808594H1036.43V48.7266H1072.21V51.5391H1033.26Z" fill="white"/>
<path d="M972.898 51.5391L998.773 0.808594H1001.34V4.21875H1000.43L976.344 51.5391H972.898ZM983.164 34.8047L984.43 32.0977H1016.46L1017.76 34.8047H983.164ZM1024.61 51.5391L1000.53 4.21875V0.808594H1002.15L1028.06 51.5391H1024.61Z" fill="white"/>
<path d="M918.16 51.5391L900.547 0.808594H903.852L919.672 46.8281H919.777L936.969 0.808594H939.992L957.184 46.8281H957.254L973.074 0.808594H976.414L958.766 51.5391H955.812L938.516 5.55469H938.41L921.113 51.5391H918.16Z" fill="white"/>
<path d="M874.32 52.3477C871.367 52.3477 868.684 51.9727 866.27 51.2227C863.879 50.4727 861.805 49.3945 860.047 47.9883C858.289 46.5586 856.883 44.8359 855.828 42.8203C854.773 40.7812 854.117 38.4844 853.859 35.9297L853.824 35.543H856.988L857.023 35.8945C857.398 38.6602 858.312 41.0625 859.766 43.1016C861.219 45.1406 863.164 46.7227 865.602 47.8477C868.039 48.9492 870.934 49.5 874.285 49.5C879.723 49.5 883.93 48.1055 886.906 45.3164C889.906 42.5273 891.406 38.707 891.406 33.8555V0.808594H894.57V33.9961C894.57 37.6523 893.773 40.8633 892.18 43.6289C890.609 46.3711 888.312 48.5156 885.289 50.0625C882.289 51.5859 878.633 52.3477 874.32 52.3477Z" fill="white"/>
<path d="M844.684 51.5391V0.808594H847.848V51.5391H844.684Z" fill="white"/>
<path d="M795.852 33.1172V28.9688H796.73L833.223 0.808594H837.758L808.613 23.3438L808.438 23.3086L795.852 33.1172ZM793.426 51.5391V0.808594H796.59V51.5391H793.426ZM835.473 51.5391L806.504 24.2578L808.93 22.2539L839.867 51.5391H835.473Z" fill="white"/>
<path d="M735.137 51.5391V0.808594H738.336L783.934 50.0625L779.68 47.1445H781.332V0.808594H784.461V51.5391H781.262L735.664 2.28516L739.918 5.20312H738.266V51.5391H735.137Z" fill="white"/>
<path d="M699.102 52.3477C693.266 52.3477 688.156 51.2812 683.773 49.1484C679.391 47.0156 675.98 43.9922 673.543 40.0781C671.129 36.1406 669.922 31.5 669.922 26.1562V26.0859C669.922 20.7891 671.129 16.1953 673.543 12.3047C675.98 8.39062 679.391 5.36719 683.773 3.23438C688.156 1.07812 693.266 0 699.102 0C704.938 0 710.047 1.07812 714.43 3.23438C718.812 5.36719 722.223 8.39062 724.66 12.3047C727.098 16.1953 728.316 20.7891 728.316 26.0859V26.1562C728.316 31.5 727.098 36.1406 724.66 40.0781C722.223 43.9922 718.812 47.0156 714.43 49.1484C710.07 51.2812 704.961 52.3477 699.102 52.3477ZM699.102 49.4648C704.281 49.4648 708.816 48.5039 712.707 46.582C716.621 44.6602 719.656 41.9531 721.812 38.4609C723.992 34.9688 725.082 30.8672 725.082 26.1562V26.0859C725.082 21.375 723.992 17.2852 721.812 13.8164C719.633 10.3477 716.598 7.66406 712.707 5.76562C708.816 3.84375 704.281 2.88281 699.102 2.88281C693.922 2.88281 689.387 3.84375 685.496 5.76562C681.605 7.66406 678.57 10.3477 676.391 13.8164C674.211 17.2852 673.121 21.375 673.121 26.0859V26.1562C673.121 30.8906 674.211 35.0039 676.391 38.4961C678.57 41.9883 681.605 44.6953 685.496 46.6172C689.41 48.5156 693.945 49.4648 699.102 49.4648Z" fill="white"/>
<path d="M635.961 52.3477C630.125 52.3477 625.016 51.2812 620.633 49.1484C616.25 47.0156 612.84 43.9922 610.402 40.0781C607.988 36.1406 606.781 31.5 606.781 26.1562V26.0859C606.781 20.7891 607.988 16.1953 610.402 12.3047C612.84 8.39062 616.25 5.36719 620.633 3.23438C625.016 1.07812 630.125 0 635.961 0C641.797 0 646.906 1.07812 651.289 3.23438C655.672 5.36719 659.082 8.39062 661.52 12.3047C663.957 16.1953 665.176 20.7891 665.176 26.0859V26.1562C665.176 31.5 663.957 36.1406 661.52 40.0781C659.082 43.9922 655.672 47.0156 651.289 49.1484C646.93 51.2812 641.82 52.3477 635.961 52.3477ZM635.961 49.4648C641.141 49.4648 645.676 48.5039 649.566 46.582C653.48 44.6602 656.516 41.9531 658.672 38.4609C660.852 34.9688 661.941 30.8672 661.941 26.1562V26.0859C661.941 21.375 660.852 17.2852 658.672 13.8164C656.492 10.3477 653.457 7.66406 649.566 5.76562C645.676 3.84375 641.141 2.88281 635.961 2.88281C630.781 2.88281 626.246 3.84375 622.355 5.76562C618.465 7.66406 615.43 10.3477 613.25 13.8164C611.07 17.2852 609.98 21.375 609.98 26.0859V26.1562C609.98 30.8906 611.07 35.0039 613.25 38.4961C615.43 41.9883 618.465 44.6953 622.355 46.6172C626.27 48.5156 630.805 49.4648 635.961 49.4648Z" fill="white"/>
<path d="M581.117 51.5391V30.6562L557 0.808594H560.797L582.594 27.8086H582.77L604.602 0.808594H608.363L584.281 30.6562V51.5391H581.117Z" fill="white"/>
<path d="M1579.1 52.3477C1573.27 52.3477 1568.16 51.2812 1563.77 49.1484C1559.39 47.0156 1555.98 43.9922 1553.54 40.0781C1551.13 36.1406 1549.92 31.5 1549.92 26.1562V26.0859C1549.92 20.7891 1551.13 16.1953 1553.54 12.3047C1555.98 8.39062 1559.39 5.36719 1563.77 3.23438C1568.16 1.07812 1573.27 0 1579.1 0C1584.94 0 1590.05 1.07812 1594.43 3.23438C1598.81 5.36719 1602.22 8.39062 1604.66 12.3047C1607.1 16.1953 1608.32 20.7891 1608.32 26.0859V26.1562C1608.32 31.5 1607.1 36.1406 1604.66 40.0781C1602.22 43.9922 1598.81 47.0156 1594.43 49.1484C1590.07 51.2812 1584.96 52.3477 1579.1 52.3477ZM1579.1 49.4648C1584.28 49.4648 1588.82 48.5039 1592.71 46.582C1596.62 44.6602 1599.66 41.9531 1601.81 38.4609C1603.99 34.9688 1605.08 30.8672 1605.08 26.1562V26.0859C1605.08 21.375 1603.99 17.2852 1601.81 13.8164C1599.63 10.3477 1596.6 7.66406 1592.71 5.76562C1588.82 3.84375 1584.28 2.88281 1579.1 2.88281C1573.92 2.88281 1569.39 3.84375 1565.5 5.76562C1561.61 7.66406 1558.57 10.3477 1556.39 13.8164C1554.21 17.2852 1553.12 21.375 1553.12 26.0859V26.1562C1553.12 30.8906 1554.21 35.0039 1556.39 38.4961C1558.57 41.9883 1561.61 44.6953 1565.5 46.6172C1569.41 48.5156 1573.95 49.4648 1579.1 49.4648Z" fill="white"/>
<path d="M1539.83 51.5391V0.808594H1543V51.5391H1539.83Z" fill="white"/>
<path d="M1481.05 51.5391V0.808594H1505.48C1511.34 0.808594 1516.31 1.82812 1520.39 3.86719C1524.47 5.88281 1527.59 8.78906 1529.74 12.5859C1531.9 16.3594 1532.98 20.8711 1532.98 26.1211V26.1914C1532.98 31.3945 1531.9 35.8945 1529.74 39.6914C1527.61 43.4883 1524.49 46.418 1520.39 48.4805C1516.31 50.5195 1511.34 51.5391 1505.48 51.5391H1481.05ZM1484.21 48.7266H1505.41C1510.62 48.7266 1515.02 47.8242 1518.63 46.0195C1522.24 44.1914 1525 41.5898 1526.89 38.2148C1528.82 34.8398 1529.78 30.8438 1529.78 26.2266V26.1562C1529.78 21.4453 1528.83 17.4141 1526.93 14.0625C1525.03 10.7109 1522.27 8.13281 1518.63 6.32812C1515.02 4.52344 1510.62 3.62109 1505.41 3.62109H1484.21V48.7266Z" fill="white"/>
<path d="M1447.44 52.3477C1442.36 52.3477 1437.97 51.4453 1434.29 49.6406C1430.61 47.8359 1427.78 45.2695 1425.79 41.9414C1423.82 38.6133 1422.83 34.6641 1422.83 30.0938V0.808594H1426V29.9883C1426 34.0195 1426.85 37.5 1428.56 40.4297C1430.27 43.3359 1432.72 45.5742 1435.91 47.1445C1439.12 48.6914 1442.98 49.4648 1447.48 49.4648C1452 49.4648 1455.86 48.6914 1459.04 47.1445C1462.25 45.5742 1464.7 43.3359 1466.39 40.4297C1468.08 37.5234 1468.92 34.043 1468.92 29.9883V0.808594H1472.09V30.0938C1472.09 34.6641 1471.1 38.625 1469.13 41.9766C1467.16 45.3047 1464.34 47.8711 1460.66 49.6758C1456.98 51.457 1452.57 52.3477 1447.44 52.3477Z" fill="white"/>
<path d="M1390.98 51.5391V3.62109H1367.53V0.808594H1417.59V3.62109H1394.14V51.5391H1390.98Z" fill="white"/>
<path d="M1344.4 52.3477C1339.31 52.3477 1334.93 51.7852 1331.25 50.6602C1327.59 49.5352 1324.75 47.918 1322.71 45.8086C1320.67 43.6758 1319.51 41.1328 1319.23 38.1797L1319.19 37.7227H1322.36L1322.43 38.1445C1322.71 40.5117 1323.75 42.5508 1325.55 44.2617C1327.36 45.9492 1329.86 47.25 1333.04 48.1641C1336.23 49.0781 1340.06 49.5352 1344.54 49.5352C1348.59 49.5352 1352.04 49.0781 1354.88 48.1641C1357.71 47.2266 1359.88 45.9023 1361.38 44.1914C1362.88 42.457 1363.63 40.3945 1363.63 38.0039V37.9688C1363.63 34.8047 1362.47 32.4609 1360.15 30.9375C1357.83 29.4141 1354 28.3359 1348.65 27.7031L1337.23 26.6133C1331.48 25.9336 1327.25 24.5977 1324.54 22.6055C1321.82 20.5898 1320.46 17.6953 1320.46 13.9219V13.8516C1320.46 11.0391 1321.34 8.60156 1323.09 6.53906C1324.85 4.47656 1327.35 2.87109 1330.58 1.72266C1333.84 0.574219 1337.7 0 1342.15 0C1346.86 0 1350.93 0.574219 1354.35 1.72266C1357.79 2.87109 1360.5 4.51172 1362.47 6.64453C1364.44 8.77734 1365.57 11.3203 1365.88 14.2734L1365.91 14.6953H1362.75L1362.68 14.3086C1362.35 11.8945 1361.34 9.84375 1359.66 8.15625C1357.97 6.44531 1355.65 5.13281 1352.7 4.21875C1349.74 3.28125 1346.21 2.8125 1342.11 2.8125C1338.25 2.8125 1334.93 3.26953 1332.16 4.18359C1329.42 5.07422 1327.31 6.33984 1325.84 7.98047C1324.38 9.62109 1323.66 11.5547 1323.66 13.7812V13.8516C1323.66 16.8047 1324.8 19.0547 1327.1 20.6016C1329.4 22.125 1333.02 23.1797 1337.96 23.7656L1349.39 24.8906C1353.49 25.3828 1356.82 26.1445 1359.38 27.1758C1361.93 28.1836 1363.8 29.5547 1365 31.2891C1366.22 33.0234 1366.83 35.2148 1366.83 37.8633V37.8984C1366.83 40.8984 1365.95 43.4766 1364.19 45.6328C1362.43 47.7891 1359.88 49.4531 1356.53 50.625C1353.18 51.7734 1349.13 52.3477 1344.4 52.3477Z" fill="white"/>
</svg>
